<?xml version="1.0" encoding="UTF-8"?>
<svg width="54px" height="54px" viewBox="0 0 54 54" version="1.1" xmlns="http://www.w3.org/2000/svg" xmlns:xlink="http://www.w3.org/1999/xlink">
    <title>2A5A1C88-31F5-45CF-9353-C41366D0863D@1x</title>
    <defs>
        <circle cx="21.9287619" cy="22.1969524" r="21.7904762"></circle>
        <linearGradient x1="-8.29104709e-13%" y1="50.0171748%" x2="100%" y2="50.0171748%">
            <stop stop-color="#6176B9" offset="1%"></stop>
            <stop stop-color="#394A9F" offset="69%"></stop>
        </linearGradient>
        <linearGradient x1="-3.63914333e-13%" y1="50.0259227%" x2="100%" y2="50.0259227%">
            <stop stop-color="#6176B9" offset="1%"></stop>
            <stop stop-color="#394A9F" offset="69%"></stop>
        </linearGradient>
    </defs>
    <g stroke="none" stroke-width="1" fill="none" fill-rule="evenodd">
        <g transform="translate(-379.000000, -278.000000)">
            <g transform="translate(382.000000, 281.000000)">
                <circle stroke="#DE5833" stroke-width="5" fill="#DE5833" fill-rule="nonzero" cx="24" cy="24" r="24"></circle>
                <g transform="translate(2.000000, 2.000000)">
                    <g>
                        <mask fill="white">
                            <use xlink:href="#path-1"></use>
                        </mask>
                        <g></g>
                        <g mask="url(#mask-2)" fill-rule="nonzero">
                            <g transform="translate(9.638095, 5.028571)">
                                <path d="M16.9546667,39.6125714 C15.9028571,37.567619 14.8971429,35.6860952 14.2727619,34.4415238 C12.6133333,31.1184762 10.9455238,26.4335238 11.704,23.4121905 C11.8422857,22.8632381 10.1409524,3.08419048 8.93828571,2.4472381 C7.60152381,1.73485714 4.69752381,0.796190476 3.19314286,0.544761905 C2.14552381,0.377142857 1.90666667,0.67047619 1.46666667,0.73752381 C1.88152381,0.779428571 3.8552381,1.75161905 4.23657143,1.80609524 C3.8552381,2.06590476 2.728,1.79771429 2.0072381,2.11619048 C1.64266667,2.28380952 1.37028571,2.904 1.37866667,3.19733333 C3.432,2.98780952 6.64190476,3.19314286 8.54438095,4.03542857 C7.03161905,4.2072381 4.7352381,4.4 3.74628571,4.91961905 C0.88,6.42819048 -0.38552381,9.9607619 0.368761905,14.1931429 C1.11885714,18.4171429 4.44190476,33.8255238 5.50209524,38.9714286 C6.55809524,44.1131429 18.7062857,43.0361905 16.9504762,39.6125714 L16.9546667,39.6125714 Z" fill="#D5D7D8"></path>
                                <path d="M18.48,40.1112381 C17.2186667,37.6095238 15.9321905,35.2167619 15.1862857,33.7333333 C13.5226667,30.4060952 11.8632381,25.7253333 12.6175238,22.704 C12.76,22.1550476 12.76,19.9089524 13.2167619,19.6114286 C16.7409524,17.3066667 16.4895238,19.5318095 17.9059048,18.5009524 C18.6350476,17.9687619 19.2175238,17.327619 19.4731429,16.447619 C20.3782857,13.2712381 18.216,7.744 15.7939048,5.32609524 C15.0060952,4.53828571 13.7992381,4.04380952 12.4331429,3.784 C11.9093333,3.0632381 11.0628571,2.376 9.86438095,1.73485714 C7.51388421,0.503566697 4.82367319,0.0794940251 2.20838095,0.528 C2.62742857,0.569904762 3.57447619,1.4247619 3.95580952,1.4792381 C3.37752381,1.87314286 1.83961905,1.82285714 1.848,2.69447619 C3.90971429,2.48495238 6.16419048,2.81180952 8.06666667,3.65828571 C6.55809524,3.82590476 5.15009524,4.20304762 4.16533333,4.72266667 C1.29066667,6.2312381 0.536380952,9.25257143 1.29066667,13.4849524 C2.04914286,17.7173333 5.37219048,33.1299048 6.42819048,38.2632381 C7.48838095,43.4007619 20.0472381,43.208 18.4841905,40.1112381 L18.48,40.1112381 Z" fill="#FFFFFF"></path>
                            </g>
                        </g>
                    </g>
                    <circle fill="#2D4F8E" fill-rule="nonzero" cx="15.84" cy="18.7272381" r="1.58819048"></circle>
                    <circle fill="#FFFFFF" fill-rule="nonzero" cx="16.5481905" cy="18.1992381" r="1"></circle>
                    <circle fill="#2D4F8E" fill-rule="nonzero" cx="26.4502857" cy="17.784381" r="1.36190476"></circle>
                    <circle fill="#FFFFFF" fill-rule="nonzero" cx="27.0579048" cy="17.3318095" r="1"></circle>
                    <path d="M16.2967619,14.1302857 C16.2967619,14.1302857 15.0982857,13.5855238 13.9375238,14.3188571 C12.7767619,15.048 12.8186667,15.7939048 12.8186667,15.7939048 C12.8186667,15.7939048 12.2026667,14.4194286 13.8453333,13.7447619 C15.4921905,13.0742857 16.2967619,14.1302857 16.2967619,14.1302857 L16.2967619,14.1302857 Z" fill="url(#linearGradient-3)" fill-rule="nonzero"></path>
                    <path d="M27.271619,14.0213333 C27.271619,14.0213333 26.4125714,13.5310476 25.7420952,13.5394286 C24.3718095,13.5561905 23.9988571,14.159619 23.9988571,14.159619 C23.9988571,14.159619 24.2293333,12.7180952 25.9809524,13.0072381 C26.5521131,13.1116774 27.0350123,13.4910981 27.271619,14.0213333 Z" fill="url(#linearGradient-4)" fill-rule="nonzero"></path>
                    <path d="M20.7009524,24.8495238 C20.8601905,23.8857143 23.3409524,22.0712381 25.1009524,21.9580952 C26.8609524,21.8491429 27.4057143,21.8742857 28.872381,21.5222857 C30.3432381,21.1744762 34.1272381,20.231619 35.1706667,19.7455238 C36.2182857,19.263619 40.6601905,19.984381 37.5299048,21.7318095 C36.176381,22.4902857 32.5264762,23.8815238 29.9158095,24.6609524 C27.3093333,25.440381 25.7295238,23.9150476 24.8620952,25.1973333 C24.1748571,26.215619 24.7238095,27.6110476 27.8373333,27.9001905 C32.0445714,28.2899048 36.0758095,26.0060952 36.52,27.2213333 C36.9641905,28.4365714 32.9078095,29.9451429 30.4354286,29.9954286 C27.9630476,30.0415238 22.9847619,28.3611429 22.2388571,27.8415238 C21.4887619,27.3260952 20.495619,26.1108571 20.7009524,24.8495238 L20.7009524,24.8495238 Z" fill="#FDD20A" fill-rule="nonzero"></path>
                    <g transform="translate(16.342857, 34.361905)" fill-rule="nonzero">
                        <path d="M6.26057143,3.1847619 C6.26057143,3.1847619 0.352,0.0293333333 0.255619048,1.30742857 C0.155047619,2.58971429 0.255619048,7.80685714 0.942857143,8.2007619 C1.63428571,8.59466667 6.55809524,5.64457143 6.55809524,5.64457143 L6.2647619,3.18057143 L6.26057143,3.1847619 Z M8.52342857,2.98361905 C8.52342857,2.98361905 12.5630476,-0.0712380952 13.4514286,0.125714286 C14.335619,0.326857143 14.5325714,6.62514286 13.7447619,6.92685714 C12.9569524,7.22019048 8.33904762,5.33028571 8.33904762,5.33028571 L8.52761905,2.98361905 L8.52342857,2.98361905 Z" fill="#65BC46"></path>
                        <path d="M4.83161905,3.51580952 C4.83161905,5.58171429 4.53409524,6.47009524 5.41828571,6.66704762 C6.30666667,6.864 7.97866667,6.66704762 8.57371429,6.27314286 C9.16038095,5.8792381 8.67009524,3.22247619 8.47314286,2.728 C8.27619048,2.23352381 4.82742857,2.62742857 4.82742857,3.51580952 L4.83161905,3.51580952 Z" fill="#43A244"></path>
                        <path d="M5.2087619,3.05904762 C5.2087619,5.12495238 4.9112381,6.00914286 5.79542857,6.20609524 C6.67961905,6.4072381 8.35161905,6.20609524 8.94666667,5.81219048 C9.53752381,5.41828571 9.0472381,2.76152381 8.85028571,2.26704762 C8.65333333,1.77257143 5.20457143,2.17066667 5.20457143,3.05485714 L5.2087619,3.05904762 Z" fill="#65BC46"></path>
                    </g>
                </g>
                <circle stroke="#FFFFFF" stroke-width="3.85" cx="24" cy="24" r="22"></circle>
            </g>
        </g>
    </g>
</svg>
