<svg version="1.1" xmlns="http://www.w3.org/2000/svg" xmlns:xlink="http://www.w3.org/1999/xlink" x="0px" y="0px" viewBox="0 0 120 122.6" style="enable-background:new 0 0 120 122.6;" xml:space="preserve">
<style type="text/css">
	.st0{fill:#4285F4;}
	.st1{fill:#34A853;}
	.st2{fill:#FBBC05;}
	.st3{fill:#EA4335;}
</style>
<g transform="matrix(1, 0, 0, 1, 27.009001, -39.238998)">
	<path class="st0" d="M93,101.9c0-4-0.4-7.9-1-11.6H34.3v23h33.1c-1.5,7.6-5.8,13.9-12.3,18.3V147h19.7
		C86.3,136.3,93,120.6,93,101.9z"/>
	<path class="st1" d="M34.3,161.8c16.6,0,30.4-5.5,40.5-14.9l-19.7-15.3c-5.5,3.7-12.5,5.9-20.8,5.9c-16,0-29.5-10.8-34.4-25.3
		h-20.3V128C-10.4,148.1,10.3,161.8,34.3,161.8z"/>
	<path class="st2" d="M-0.1,112.2c-1.3-3.7-1.9-7.6-1.9-11.7c0-4.1,0.7-8,1.9-11.7V73.1h-20.3c-4.2,8.3-6.6,17.6-6.6,27.5
		c0,9.9,2.4,19.2,6.6,27.5L-0.1,112.2z"/>
	<path class="st3" d="M34.3,63.5c9,0,17.1,3.1,23.5,9.2l17.5-17.5c-10.6-9.9-24.4-16-41-16c-24,0-44.6,13.8-54.7,33.8l20.3,15.8
		C4.8,74.3,18.3,63.5,34.3,63.5z"/>
</g>
</svg>
