<svg xmlns="http://www.w3.org/2000/svg" viewBox="0 0 352.09 174.77"><defs><style>.cls-1{fill:#fff;}</style></defs><title>Kaksikielinen_nega</title><g data-name="Layer 2"><g data-name="Layer 1"><path class="cls-1" d="M7.62,7.62V130.33a24.53,24.53,0,0,0,24.59,24.42H151.68A36.17,36.17,0,0,1,176,164.08a36.21,36.21,0,0,1,24.37-9.33H319.68a24.63,24.63,0,0,0,24.79-24.42V7.62ZM176,174.77l-4-4a28.65,28.65,0,0,0-20.36-8.4H32.21A32.17,32.17,0,0,1,0,130.33V0H352.09V130.33a32.27,32.27,0,0,1-32.41,32H200.41a28.65,28.65,0,0,0-20.36,8.4Z"/><path class="cls-1" d="M304.25,120.44a6.6,6.6,0,0,1-6.6-5l-6.4,3.59c2.13,4.16,7,6.76,13.1,6.76,5.67,0,10.56-3.12,10.56-8.38,0-4.78-3.74-6.65-7.85-8-3.9-1.25-7.33-1.46-7.33-3.43,0-1.51,1.56-2.34,3.43-2.34a5.49,5.49,0,0,1,5.46,4.16l6.29-3.54c-2-3.48-6.81-6-12-6-5.62,0-10.35,3.12-10.35,8.06s4.94,7,8.89,8c3.38.93,6.29,1.4,6.29,3.48,0,1.67-1.45,2.55-3.48,2.55M270,125.17h7.34v-15c0-3.38.93-5.57,3.22-5.57,1.82,0,2.45,1.61,2.45,3.33a31.27,31.27,0,0,1-.42,4.32l6.6-3.8a18,18,0,0,0,.26-3.07c0-3.85-2-7-5.72-7-3.32,0-5.3,2.29-6.6,4.84H277l.37-4.32H270Zm-22.35-13.1c0-4.68,1.62-8.11,5.26-8.11s5.2,3.43,5.2,8.11-1.62,8.11-5.2,8.11-5.26-3.43-5.26-8.11m5.26,13.73c7.12,0,12.63-5.2,12.63-13.73S260,98.34,252.89,98.34s-12.69,5.2-12.69,13.73,5.51,13.73,12.69,13.73M233.57,92.41c1.77,0,2.55,1.61,2.66,3.17l6.34-3.9a11.1,11.1,0,0,0-9.36-4.78c-5.56,0-9.62,3.12-9.62,9.26V99h-4v5.62h4v20.59h7.28V104.58h5.72V99h-5.72V96.1c0-2.28.88-3.69,2.7-3.69m-36.45,15c0-2.5,2-4.11,4.47-4.11s4.48,1.61,4.48,4.11-2,4.11-4.48,4.11a4.15,4.15,0,0,1-4.47-4.11m-3,21c0-2.45,6.13-2.71,9.31-2.71s5.66.57,5.66,2.29c0,2.19-2.8,3.12-7.64,3.12-4.26,0-7.33-.83-7.33-2.7M190.47,107a7.67,7.67,0,0,0,5.25,7.49v.16c-3.07.62-6.09,2.23-6.09,5.2,0,2.23,1.77,3.53,3.75,4.16v.16c-2.65.46-5.51,2.13-5.51,4.94,0,4.62,6.55,6.65,13.72,6.65,7.75,0,14.62-2.44,14.62-8.58,0-5.1-3.75-7.38-9.42-7.38-2.86,0-5.3.41-7.54.41s-3.12-.47-3.12-1.56c0-1.4,2.45-2.29,5.31-2.29,6.19,0,11.18-3.27,11.18-8.47a7.51,7.51,0,0,0-3.23-6v-.21a8.29,8.29,0,0,0,2.08.31c3,0,4.53-1.61,4.63-5l-6.71-3.85a14.66,14.66,0,0,1,.26,2.49c0,2-.83,3.23-3,3.23-1.77,0-3.12-.47-5.46-.47-6.19,0-10.71,3.54-10.71,8.68m-6.58,1.36c0-6.5-3.17-10-8.22-10a8.52,8.52,0,0,0-7.85,4.94h-.16L168,99H160.7v26.21H168V109.62c0-3,1.77-5.09,4.52-5.09s3.95,1.82,3.95,5.3v15.34h7.39ZM149.61,87.63a4.11,4.11,0,1,0,4.26,4.11,4.08,4.08,0,0,0-4.26-4.11m-3.69,37.54h7.38V99h-7.38Zm-16.55-4.73a6.6,6.6,0,0,1-6.6-5l-6.4,3.59c2.13,4.16,7,6.76,13.1,6.76,5.67,0,10.56-3.12,10.56-8.38,0-4.78-3.74-6.65-7.85-8-3.9-1.25-7.33-1.46-7.33-3.43,0-1.51,1.56-2.34,3.43-2.34a5.49,5.49,0,0,1,5.46,4.16l6.29-3.54c-2-3.48-6.81-6-12-6-5.62,0-10.35,3.12-10.35,8.06s4.94,7,8.89,8c3.38.93,6.29,1.4,6.29,3.48,0,1.67-1.45,2.55-3.48,2.55m-44.51-16.8c2.86,0,4.89,2.34,4.89,5.52H79.4c.57-3.59,2.76-5.52,5.46-5.52M96.2,114a16.36,16.36,0,0,0,.36-3.58c0-7.13-4.68-12.12-11.7-12.12s-12.53,5.2-12.53,13.73S77.69,125.8,85,125.8a12.57,12.57,0,0,0,11.23-6.24l-6.19-3.49a4.93,4.93,0,0,1-5,4.32c-3.07,0-5.46-2.08-5.77-6.35Zm-37,11.13h7.64v-36H59.18v14.25H44.82V89.19H37.18v36h7.64V110.25H59.18Z"/><path class="cls-1" d="M109.46,35.65h-7.37V66q0,4,1.74,5.89t5.52,1.84a13.49,13.49,0,0,0,2.65-.28,7,7,0,0,0,2.18-.81l.62-4.92a13.65,13.65,0,0,1-1.53.44,8.4,8.4,0,0,1-1.53.13,1.84,1.84,0,0,1-1.74-.73,4.53,4.53,0,0,1-.54-2.59Z"/><path class="cls-1" d="M109.46,87.51h-7.37v30.33q0,4.05,1.74,5.89c1.16,1.22,3,1.84,5.52,1.84a12.79,12.79,0,0,0,2.65-.29,7,7,0,0,0,2.18-.8l.62-4.93a10.4,10.4,0,0,1-1.53.44,7.59,7.59,0,0,1-1.53.13,1.84,1.84,0,0,1-1.74-.72,4.57,4.57,0,0,1-.54-2.6Z"/><path class="cls-1" d="M228.11,39.76a4.27,4.27,0,1,1-4.26-4.11,4.09,4.09,0,0,1,4.26,4.11m-8,33.43h7.39V47h-7.39ZM207,57.38l9.62,15.81h-8l-6.45-10.5-3.48,4.42v6.08H191.3V35.55h7.33V52.91c0,3.23-.36,6.45-.36,6.45h.15s1.72-2.86,3.17-4.89L207.21,47h8.58Zm-23.09-1c0-6.5-3.17-10-8.21-10a8.52,8.52,0,0,0-7.85,4.94h-.16L168,47h-7.33v26.2H168V57.64c0-3,1.77-5.09,4.52-5.09s3.95,1.82,3.95,5.3V73.19h7.38Zm-30.2-16.64a4.27,4.27,0,1,1-4.26-4.11,4.09,4.09,0,0,1,4.26,4.11m-8,33.43h7.39V47H145.7ZM133,65.91c0-2.08-2.91-2.55-6.29-3.48-4-1-8.89-3-8.89-8s4.73-8.06,10.34-8.06c5.2,0,10,2.5,12,6l-6.29,3.54a5.48,5.48,0,0,0-5.46-4.16c-1.87,0-3.43.83-3.43,2.34,0,2,3.43,2.18,7.33,3.43,4.11,1.3,7.85,3.17,7.85,7.95,0,5.25-4.88,8.37-10.55,8.37-6.14,0-11-2.6-13.1-6.76l6.39-3.58a6.6,6.6,0,0,0,6.6,5c2,0,3.49-.89,3.49-2.55m-23.7-30.1h-7.38V66c0,2.71.58,4.67,1.74,5.9s3,1.85,5.54,1.85a12.87,12.87,0,0,0,2.65-.29,6.87,6.87,0,0,0,2.18-.8l.63-4.94a11.46,11.46,0,0,1-1.54.44,7.59,7.59,0,0,1-1.53.13,1.82,1.82,0,0,1-1.74-.73,4.46,4.46,0,0,1-.55-2.6ZM84.78,51.66c-2.7,0-4.89,1.93-5.46,5.52H89.67c0-3.18-2-5.52-4.89-5.52m11.34,10.4h-17c.31,4.27,2.7,6.35,5.77,6.35a4.94,4.94,0,0,0,5-4.32l6.19,3.48a12.55,12.55,0,0,1-11.23,6.24c-7.33,0-12.69-5.09-12.69-13.72s5.46-13.73,12.53-13.73,11.7,5,11.7,12.12a16.36,16.36,0,0,1-.36,3.58M59.17,73.19h7.64v-36H59.17V51.46H44.82V37.21H37.18v36h7.64V58.27H59.17Z"/></g></g></svg>
