<?xml version="1.0" encoding="UTF-8"?>
<svg width="355px" height="125px" viewBox="0 0 355 125" version="1.1" xmlns="http://www.w3.org/2000/svg" xmlns:xlink="http://www.w3.org/1999/xlink">
    <title>17914C61-55F8-4759-AC4E-685BFCF33129</title>
    <g stroke="none" stroke-width="1" fill="none" fill-rule="evenodd">
        <g transform="translate(-73.000000, -273.000000)" fill="#FFFFFE">
            <g transform="translate(73.811200, 273.811600)">
                <path d="M353.336,7.10542736e-15 L353.336,78.802 C353.336,96.42796 338.980475,110.802928 321.226042,111.088665 L320.687,111.093 L201.717,111.201 C194.133851,111.201 186.995167,114.080446 181.558162,119.319952 L181.206,119.665 L177.168,123.692 L173.128,119.663 C167.766553,114.323085 160.67514,111.330024 153.112848,111.205077 L152.619,111.201 L32.448,111.201 C14.73591,111.201 0.2914734,97.0032714 0.004355877,79.4421728 L0,78.909 L0,0.109 L353.336,7.10542736e-15 Z M345.656,7.679 L7.68,7.788 L7.68,78.909 C7.68,92.34429 18.5698911,103.299927 32.0390624,103.517696 L32.448,103.521 L152.619,103.521 C161.774,103.521 170.419,106.845 177.168,112.916 C183.783,106.96446 192.216998,103.65498 201.168324,103.524982 L201.717,103.521 L320.687,103.414 C334.31732,103.414 345.431723,92.5927159 345.656,79.2083625 L345.656,78.802 L345.656,7.679 Z M210.4323,41.5317 L217.1713,45.3977 C217.0663,48.8447 215.4993,50.4637 212.5213,50.4637 C211.917744,50.4637 211.107967,50.3404407 210.605371,50.203486 L210.4323,50.1517 L210.4323,50.3597 C211.8953,51.5097 213.6713,53.3897 213.6713,56.4197 C213.6713,61.5551576 208.824859,64.8225854 202.754364,64.9318704 L202.4393,64.9347 C199.5663,64.9347 197.1113,65.8227 197.1113,67.2337 C197.1113,68.3297 198.0513,68.7997 200.2463,68.7997 C201.110146,68.7997 202.004909,68.7378657 202.942481,68.6617619 L204.678912,68.5196381 C205.672134,68.4435343 206.7153,68.3817 207.8203,68.3817 C213.5143,68.3817 217.2753,70.6807 217.2753,75.7997 C217.2753,81.9637 210.3803,84.4187 202.5963,84.4187 L201.911815,84.4125229 C201.229606,84.4001504 200.5548,84.3691363 199.892539,84.318985 L199.234651,84.2624362 L199.234651,84.2624362 L198.58627,84.193019 C198.264646,84.1550749 197.947017,84.1122639 197.634024,84.0645239 L197.014412,83.9624536 C196.912237,83.9443405 196.810626,83.9256751 196.7096,83.9064551 L196.110679,83.7844624 C191.871593,82.8622273 188.8053,80.9061444 188.8053,77.7337 C188.8053,74.9900889 191.520906,73.3344215 194.119882,72.8126457 L194.3423,72.7707 L194.3423,72.6137 C192.3573,71.9867 190.5823,70.6807 190.5823,68.4347 C190.5823,65.5350684 193.453977,63.9238517 196.450149,63.2622676 L196.6933,63.2107 L196.6933,63.0537 C193.8203,61.9047 191.4183,59.6057 191.4183,55.5317 C191.4183,50.3597 195.9623,46.8077 202.1783,46.8077 C203.1187,46.8077 203.90022,46.8829 204.613228,46.97314 L205.97467,47.1558481 C206.526189,47.2254778 207.071967,47.2777 207.6643,47.2777 C209.8573,47.2777 210.6933,46.0237 210.6933,44.0387 C210.6933,43.4120333 210.623522,42.7853667 210.546189,42.2514407 L210.4323,41.5317 Z M205.268519,74.2977349 L204.74356,74.2860765 L204.74356,74.2860765 L204.080381,74.2860765 L204.080381,74.2860765 L203.216767,74.2993154 L203.216767,74.2993154 L202.520078,74.3213425 L202.520078,74.3213425 L202.03888,74.3431798 L202.03888,74.3431798 L201.548389,74.3716052 L201.548389,74.3716052 L201.052115,74.407361 L201.052115,74.407361 L200.553571,74.4511894 C200.470486,74.4592081 200.387453,74.4675941 200.304545,74.4763628 L199.80918,74.533692 C199.644948,74.5544152 199.481801,74.5767931 199.320324,74.6009495 L198.841488,74.6788775 C196.793316,75.0407576 195.1263,75.7241 195.1263,77.0007 C195.1263,78.4786286 197.028963,79.3114296 199.92238,79.6004802 L200.45917,79.6470657 C200.915255,79.6809315 201.392815,79.7024555 201.88868,79.7119904 L202.4923,79.7177 L202.4923,79.7177 L203.142055,79.7118441 C203.248218,79.7098872 203.353312,79.7074374 203.457325,79.704491 L204.068373,79.6808239 C204.168031,79.6758764 204.26659,79.6704249 204.364041,79.6644658 L204.935389,79.6225896 C205.028375,79.614585 205.120234,79.6060655 205.210959,79.5970273 L205.741613,79.5365437 C208.584487,79.169325 210.1713,78.2292 210.1713,76.5837 C210.1713,75.1552429 208.413782,74.5156094 206.027892,74.3382856 L205.525663,74.3080874 C205.440588,74.3041181 205.354858,74.3006718 205.268519,74.2977349 L205.268519,74.2977349 Z M304.3633,46.8077 C309.468573,46.8077 314.17463,49.2029955 316.28715,52.5776853 L316.4303,52.8147 L310.1093,56.3667 C309.4833,54.0167 307.4983,52.1877 304.6253,52.1877 C302.7443,52.1877 301.1773,53.0237 301.1773,54.5387 C301.1773,55.5554073 302.081862,56.1064543 303.490827,56.5704991 L303.906768,56.7010431 L303.906768,56.7010431 L304.348086,56.8288148 L304.348086,56.8288148 L305.053107,57.0195676 L305.053107,57.0195676 L306.592441,57.4221033 L306.592441,57.4221033 L307.412754,57.6471338 C307.505387,57.6733852 307.598472,57.7000936 307.691967,57.7272998 L308.257499,57.8968376 L308.257499,57.8968376 L308.795427,58.0673976 L308.795427,58.0673976 L309.296253,58.2335827 C309.379285,58.2618524 309.462079,58.2904214 309.544605,58.3193098 L310.03632,58.496632 L310.03632,58.496632 L310.520231,58.682577 C310.68008,58.7461023 310.838397,58.8112244 310.994951,58.8781031 L311.459095,59.0841686 L311.459095,59.0841686 L311.911277,59.3017321 C314.511422,60.606251 316.4303,62.5465571 316.4303,65.9787 C316.4303,71.2547 311.5203,74.3897 305.8263,74.3897 C299.793449,74.3897 295.010657,71.8876665 292.802637,67.8633065 L292.6623,67.5987 L299.0873,63.9937 C299.9223,66.8667 302.2213,69.0087 305.7213,69.0087 C307.7583,69.0087 309.2213,68.1197 309.2213,66.4497 C309.2213,65.1505108 308.091041,64.4773114 306.42022,63.9280776 L305.97248,63.7872812 L305.97248,63.7872812 L305.502541,63.6501284 L305.502541,63.6501284 L304.7611,63.4468986 L304.7611,63.4468986 L303.175492,63.0249275 L303.175492,63.0249275 L302.218533,62.7628329 L302.218533,62.7628329 L301.755971,62.6270926 L301.755971,62.6270926 L301.289739,62.4816363 L301.289739,62.4816363 L300.821758,62.3257903 C300.743723,62.2989127 300.665694,62.2715741 300.587712,62.2437605 L300.120706,62.0710664 L300.120706,62.0710664 L299.656748,61.8862978 C296.655093,60.6446003 293.9683,58.594983 293.9683,54.9047 C293.9683,49.9417 298.7213,46.8077 304.3633,46.8077 Z M254.1243,46.8077 C261.2803,46.8077 266.8173,52.0317 266.8173,60.5987 C266.8173,69.1657 261.2803,74.3897 254.1243,74.3897 C246.9153,74.3897 241.3773,69.1657 241.3773,60.5987 C241.3773,52.0317 246.9153,46.8077 254.1243,46.8077 Z M128.6853,46.8077 C133.790573,46.8077 138.495674,49.2029955 140.609085,52.5776853 L140.7523,52.8147 L134.4313,56.3667 C133.8043,54.0167 131.8193,52.1877 128.9463,52.1877 C127.0653,52.1877 125.4983,53.0237 125.4983,54.5387 C125.4983,55.5554073 126.402862,56.1064543 127.811693,56.5704991 L128.227592,56.7010431 L128.227592,56.7010431 L128.668859,56.8288148 L128.668859,56.8288148 L129.373788,57.0195676 L129.373788,57.0195676 L130.91287,57.4221033 L130.91287,57.4221033 L131.733019,57.6471338 C131.825632,57.6733852 131.918697,57.7000936 132.012171,57.7272998 L132.57757,57.8968376 L132.57757,57.8968376 L133.115547,58.0673976 L133.115547,58.0673976 L133.865056,58.3193098 L133.865056,58.3193098 L134.356969,58.496632 L134.356969,58.496632 L134.841059,58.682577 C135.000965,58.7461023 135.159337,58.8112244 135.315943,58.8781031 L135.780234,59.0841686 C138.607856,60.3893731 140.7523,62.3504347 140.7523,65.9787 C140.7523,71.2547 135.8413,74.3897 130.1473,74.3897 C124.115428,74.3897 119.332656,71.8876665 117.124637,67.8633065 L116.9843,67.5987 L123.4093,63.9937 C124.2453,66.8667 126.5433,69.0087 130.0433,69.0087 C132.0803,69.0087 133.5433,68.1197 133.5433,66.4497 C133.5433,65.1505108 132.413041,64.4773114 130.74198,63.9280776 L130.294171,63.7872812 L130.294171,63.7872812 L129.824152,63.6501284 L129.824152,63.6501284 L129.082567,63.4468986 L129.082567,63.4468986 L127.496571,63.0249275 L127.496571,63.0249275 L126.539685,62.7628329 L126.539685,62.7628329 L126.077203,62.6270926 C125.999762,62.6036783 125.922168,62.5798591 125.844461,62.5556211 L125.377174,62.4050542 C125.299173,62.3790845 125.221138,62.3526679 125.14311,62.3257903 L124.675339,62.1588806 L124.675339,62.1588806 L124.209645,61.9802335 C121.116213,60.7486302 118.2893,58.6896057 118.2893,54.9047 C118.2893,49.9417 123.0433,46.8077 128.6853,46.8077 Z M85.3313,46.8077 C92.3833,46.8077 97.0843,51.8227 97.0843,58.9797 C97.0843,59.15098 97.081964,59.3179144 97.0776658,59.4801023 L97.0592581,59.9520256 L97.0592581,59.9520256 L97.0313195,60.3930646 L97.0313195,60.3930646 L96.9960926,60.8008139 L96.9960926,60.8008139 L96.95582,61.172868 L96.95582,61.172868 L96.8908558,61.6587591 L96.8908558,61.6587591 L96.8271531,62.050806 L96.8271531,62.050806 L96.7193,62.5827 L79.6893,62.5827 C80.0023,66.8667 82.4063,68.9557 85.4873,68.9557 C88.1723909,68.9557 90.0224846,67.2368093 90.5123739,64.8467066 L90.5543,64.6207 L96.7713,68.1197 C94.9433,71.4637 90.9733,74.3897 85.4873,74.3897 C78.1223,74.3897 72.7423,69.2697 72.7423,60.5987 C72.7423,52.0317 78.2273,46.8077 85.3313,46.8077 Z M109.7079,36.0752 L109.7079,65.3732 C109.7079,66.6172 109.8899,67.4812 110.2519,67.9652 C110.6149,68.4502 111.0209,68.6912 111.9899,68.6912 C112.5769,68.6912 113.0869,68.6482 113.5189,68.5612 C113.8789,68.4895333 114.293067,68.3762 114.7614,68.2200426 L115.0489,68.1212 L114.4269,73.0482 C113.8739,73.3922 113.1469,73.6612 112.2489,73.8512 C111.3489,74.0412 110.4679,74.1372 109.6039,74.1372 C107.0809,74.1372 105.2399,73.5232 104.0819,72.2952 C102.975582,71.1249273 102.398646,69.2831318 102.348483,66.7732926 L102.3449,66.4102 L102.3449,36.0752 L109.7079,36.0752 Z M45.1093,37.6137 L45.1093,51.9267 L59.5273,51.9267 L59.5273,37.6137 L67.2063,37.6137 L67.2063,73.7627 L59.5273,73.7627 L59.5273,58.7697 L45.1093,58.7697 L45.1093,73.7627 L37.4303,73.7627 L37.4303,37.6137 L45.1093,37.6137 Z M154.0843,47.4337 L154.0843,73.7627 L146.6663,73.7627 L146.6663,47.4337 L154.0843,47.4337 Z M176.5553,46.8077 C181.534388,46.8077 184.696931,50.2361617 184.806365,56.5487687 L184.8093,56.8897 L184.8093,73.7627 L177.3913,73.7627 L177.3913,58.3527 C177.3913,54.8517 176.1903,53.0237 173.4223,53.0237 C170.728138,53.0237 168.974025,55.0022537 168.881176,57.9001069 L168.8773,58.1437 L168.8773,73.7627 L161.5113,73.7627 L161.5113,47.4337 L168.8773,47.4337 L168.5103,51.7707 L168.6683,51.7707 C169.9733,49.3667 172.2203,46.8077 176.5553,46.8077 Z M285.0903,46.9117 C288.7983,46.9117 290.8373,50.0467 290.8373,53.9117 L290.835863,54.1345318 L290.835863,54.1345318 L290.825137,54.5657227 L290.825137,54.5657227 L290.805659,54.9743654 L290.805659,54.9743654 L290.779488,55.3565582 L290.779488,55.3565582 L290.732188,55.8717189 L290.732188,55.8717189 L290.664916,56.4296093 L290.664916,56.4296093 L290.5763,56.9937 L283.9413,60.8077 L284.107301,59.6504828 L284.107301,59.6504828 L284.173427,59.1452111 L284.173427,59.1452111 L284.236466,58.5963261 C284.306231,57.9342882 284.3593,57.2029941 284.3593,56.4717 C284.3593,54.7477 283.7323,53.1287 281.9043,53.1287 C279.669161,53.1287 278.718571,55.202504 278.667485,58.4375847 L278.6653,58.7177 L278.6653,73.7627 L271.2993,73.7627 L271.2993,47.4337 L278.6653,47.4337 L278.2993,51.7707 L278.4563,51.7707 C279.7623,49.2107 281.7473,46.9117 285.0903,46.9117 Z M234.3573,35.3147 C238.927717,35.3147 241.967829,37.6352054 243.620993,39.9245974 L243.7593,40.1207 L237.3863,44.0387 C237.2823,42.4717 236.4993,40.8527 234.7223,40.8527 C232.957334,40.8527 232.068659,42.1671352 232.00947,44.327065 L232.0063,44.5617 L232.0063,47.4337 L237.7523,47.4337 L237.7523,53.0757 L232.0063,53.0757 L232.0063,73.7627 L224.6933,73.7627 L224.6933,53.0757 L220.6703,53.0757 L220.6703,47.4337 L224.6933,47.4337 L224.6933,44.6137 C224.6933,38.4497 228.7673,35.3147 234.3573,35.3147 Z M254.1243,52.4497 C250.4663,52.4497 248.8473,55.8977 248.8473,60.5987 C248.8473,65.3007 250.4663,68.7477 254.1243,68.7477 C257.7283,68.7477 259.3473,65.3007 259.3473,60.5987 C259.3473,55.8977 257.7283,52.4497 254.1243,52.4497 Z M202.5963,51.7707 C200.0893,51.7707 198.1033,53.3897 198.1033,55.8977 C198.1033,58.4047 200.0893,60.0237 202.5963,60.0237 C205.1033,60.0237 207.0893,58.4047 207.0893,55.8977 C207.0893,53.3897 205.1033,51.7707 202.5963,51.7707 Z M85.3313,52.1357 C82.6897722,52.1357 80.5435377,53.9628026 79.8979386,57.3762403 L79.8463,57.6727 L90.2413,57.6727 C90.2413,54.4867 88.2043,52.1357 85.3313,52.1357 Z M150.3743,36.0467 C152.7773,36.0467 154.6583,37.7697 154.6583,40.1737 C154.6583,42.5757 152.7773,44.3007 150.3743,44.3007 C147.9713,44.3007 146.0903,42.5757 146.0903,40.1737 C146.0903,37.7697 147.9713,36.0467 150.3743,36.0467 Z"></path>
            </g>
        </g>
    </g>
</svg>
