<?xml version="1.0" encoding="UTF-8"?>
<svg width="48px" height="48px" viewBox="0 0 48 48" version="1.1" xmlns="http://www.w3.org/2000/svg" xmlns:xlink="http://www.w3.org/1999/xlink">
    <title>BD6A5683-8047-4E05-BC2A-0724FA666A86@1x</title>
    <g id="Updates-1" stroke="none" stroke-width="1" fill="none" fill-rule="evenodd">
        <g id="Oppijan-profiili-3-Copy-4" transform="translate(-875.000000, -716.000000)">
            <g id="Group-18" transform="translate(235.000000, 591.000000)">
                <g id="Group" transform="translate(640.000000, 125.000000)">
                    <rect id="frame" x="0" y="0" width="48" height="48"></rect>
                    <path d="M11.5,2 C15.918278,2 19.5,6.25329488 19.5,11.5 C19.5,16.1375044 16.7017454,19.9988975 13.0009014,20.8330769 L13.0010775,32.2681881 C13.5982846,32.6141507 14,33.2601625 14,34 L14,41 C14,42.1045695 13.1045695,43 12,43 L11,43 C9.8954305,43 9,42.1045695 9,41 L9,34 C9,33.2597476 9.40216612,32.6134261 9.99992752,32.2676063 L10.0000955,20.8333015 C6.29875712,19.9995909 3.5,16.1379208 3.5,11.5 C3.5,6.25329488 7.081722,2 11.5,2 Z M11.5,5 C8.86371878,5 6.5,7.80691605 6.5,11.5 C6.5,15.1930839 8.86371878,18 11.5,18 C14.1362812,18 16.5,15.1930839 16.5,11.5 C16.5,7.80691605 14.1362812,5 11.5,5 Z" id="Shape" fill="#000000" fill-rule="nonzero"></path>
                    <path d="M42.0051299,3.23491753 L40.7971002,10.1581602 L39.8311744,9.89934117 L36.9841649,20.5245253 L39.8155912,21.2832036 C42.9461461,22.1220333 44.7476652,25.4517816 43.9792828,28.7600448 L43.9228963,28.9855455 C43.6013402,30.1856088 42.9699208,31.2500058 42.1148367,32.0739518 L41.8964559,32.2748683 L41.6041288,33.359439 L41.7078071,33.5756779 C42.4745254,35.2522856 42.7054655,37.1745637 42.3421084,39.0693408 L42.2670003,39.4242225 L42.1879214,39.7408746 C40.9608401,44.3204044 36.5668364,47.1779337 32.2598917,46.1716488 L32.0162173,46.1105484 L25.5957448,44.390188 C21.2120645,43.2155844 18.7213936,38.4539726 19.9716274,33.7880366 C20.5067781,31.7908269 21.6604064,30.0730776 23.2095483,28.8815859 L23.4713625,28.687919 L23.6682974,28.5524707 L23.9574796,27.4692881 L23.868849,27.1864516 C23.597423,26.2446828 23.5398509,25.2371836 23.7086588,24.2392217 L23.7733297,23.9070243 L23.8467597,23.6061609 C24.7321392,20.3018796 27.9044701,18.2273218 31.0365393,18.9354509 L31.2549612,18.9893897 L34.0863874,19.7480681 L36.9333969,9.12288404 L35.9674711,8.86406499 L38.3829081,2.26434611 L42.0051299,3.23491753 Z M33.3099303,22.6458456 L30.4485281,21.8791352 C28.9116384,21.4673268 27.2496597,22.5274512 26.7728514,24.3069239 C26.5781882,25.033417 26.6106275,25.7741858 26.8478577,26.4306097 L26.9344887,26.6461584 L27.0157748,27.710367 L26.4223142,29.9260042 L25.665669,30.906256 C24.3179319,31.6643357 23.2900587,32.9945924 22.8561557,34.6139406 C22.0515333,37.616832 23.5445031,40.6025481 26.1473332,41.4272466 L26.3497199,41.4863865 L32.8151563,43.2187949 C35.5423001,43.9495309 38.451641,42.0937529 39.2768947,39.0138643 C39.6851639,37.4901831 39.5100555,35.9252176 38.8313786,34.6373518 L38.6982449,34.3992019 L38.5332538,33.1723332 L39.1276154,30.9545216 L39.7297135,30.0737638 C40.3546811,29.6182417 40.8222549,28.9362107 41.038445,28.1293781 C41.4982244,26.4134581 40.6691785,24.7257949 39.2313405,24.2381931 L39.06911,24.1890131 L36.2077078,23.4223027 L34.9681785,28.0501297 C36.2302894,29.0027539 36.85699,30.6584067 36.4225605,32.2797199 C35.8507932,34.4135843 33.6574454,35.6799142 31.523581,35.108147 C29.3897166,34.5363798 28.1233866,32.3430319 28.6951539,30.2091675 C29.1296813,28.587489 30.5007662,27.4668623 32.0705415,27.273295 L33.3099303,22.6458456 Z M33.0764953,29.312592 C32.009563,29.0267084 30.9128891,29.6598734 30.6270055,30.7268056 C30.3411219,31.7937378 30.9742869,32.8904117 32.0412191,33.1762953 C33.1081513,33.462179 34.2048252,32.829014 34.4907088,31.7620818 C34.7765924,30.6951496 34.1434275,29.5984757 33.0764953,29.312592 Z" id="Shape" fill="#000000"></path>
                </g>
            </g>
        </g>
    </g>
</svg>