<svg xmlns="http://www.w3.org/2000/svg" viewBox="0 0 101.36 101.36">
	<g>
		<g>
			<rect fill="red" width="101.36" height="101.36"/>
			<g>
				<path fill="#FFFFFF"
					  d="M12.18,65.85v-29.36h9.51c3.6,0,5.95,.15,7.05,.44,1.68,.44,3.09,1.4,4.23,2.87,1.13,1.48,1.7,3.38,1.7,5.72,0,1.8-.33,3.32-.98,4.55-.65,1.23-1.49,2.19-2.49,2.89-1.01,.7-2.03,1.17-3.07,1.39-1.42,.28-3.46,.42-6.15,.42h-3.87v11.07h-5.93Zm5.93-24.39v8.33h3.24c2.34,0,3.9-.15,4.69-.46,.79-.31,1.41-.79,1.85-1.44s.67-1.42,.67-2.28c0-1.07-.31-1.95-.94-2.64-.63-.69-1.42-1.13-2.38-1.3-.71-.13-2.13-.2-4.27-.2h-2.86Z"/>
				<path fill="#FFFFFF"
					  d="M39.51,36.49h10.83c2.44,0,4.31,.19,5.59,.56,1.72,.51,3.2,1.41,4.43,2.7,1.23,1.29,2.16,2.88,2.8,4.76,.64,1.88,.96,4.19,.96,6.94,0,2.42-.3,4.5-.9,6.25-.73,2.14-1.78,3.86-3.14,5.19-1.03,1-2.42,1.78-4.17,2.34-1.31,.41-3.06,.62-5.25,.62h-11.15v-29.36Zm5.93,4.97v19.45h4.43c1.66,0,2.85-.09,3.58-.28,.96-.24,1.76-.65,2.39-1.22s1.15-1.52,1.55-2.83,.6-3.11,.6-5.38-.2-4.01-.6-5.23c-.4-1.21-.96-2.16-1.68-2.84-.72-.68-1.64-1.14-2.74-1.38-.83-.19-2.45-.28-4.87-.28h-2.66Z"/>
				<path fill="#FFFFFF" d="M69.19,65.85v-29.36h20.13v4.97h-14.2v6.95h12.26v4.97h-12.26v12.48h-5.93Z"/>
			</g>
		</g>
	</g>
</svg>
