<?xml version="1.0" encoding="UTF-8"?>
<svg width="48px" height="48px" viewBox="0 0 48 48" version="1.1" xmlns="http://www.w3.org/2000/svg" xmlns:xlink="http://www.w3.org/1999/xlink">
    <title>42DD3167-8EE8-4019-8915-595CE1C9D873</title>
    <defs>
        <filter id="kuraattori-icon-filter">
            <feColorMatrix in="SourceGraphic" type="matrix" values="0 0 0 0 0.000000 0 0 0 0 0.000000 0 0 0 0 0.000000 0 0 0 1.000000 0"></feColorMatrix>
        </filter>
    </defs>
    <g stroke="none" stroke-width="1" fill="none" fill-rule="evenodd">
        <g transform="translate(-741.000000, -624.000000)" filter="url(#kuraattori-icon-filter)">
            <g transform="translate(741.000000, 624.000000)">
                <path d="M25.9142136,26.5502525 L30.363,30.9992525 L40,31 C42.7614237,31 45,33.2385763 45,36 L45,41 C45,43.7614237 42.7614237,46 40,46 L22,46 C19.2385763,46 17,43.7614237 17,41 L17,36 C17,33.430875 18.9376541,31.3143134 21.4312896,31.0319878 L25.9142136,26.5502525 Z M27,22 C31.2832049,22 34.8675757,24.9920647 35.7770028,29.0000846 L32.6587023,29.0003218 C31.8588616,26.7369512 29.7395339,25.0968171 27.2249383,25.0041385 L27,25 L11,25 C7.76160306,25 5.12242824,27.5655749 5.00413847,30.7750617 L5,31 L5,40 L15,40 L15,43 L2,43 L2,31 C2,26.0294373 6.02943725,22 11,22 L27,22 Z M25.913,30.792 L22.8107473,33.8949741 L21.7687888,34.012943 C20.8208447,34.1202678 20.081505,34.8928325 20.0063057,35.8405154 L20,36 L20,41 C20,42.0543618 20.8158778,42.9181651 21.8507377,42.9945143 L22,43 L40,43 C41.0543618,43 41.9181651,42.1841222 41.9945143,41.1492623 L42,41 L42,36 C42,34.9456382 41.1841222,34.0818349 40.14906,34.0054857 L39.9997673,34 L29.1202208,33.9991561 L25.913,30.792 Z M40,37 L40,40 L23,40 L23,37 L40,37 Z M19,2 C23.9705627,2 28,6.02943725 28,11 C28,15.9705627 23.9705627,20 19,20 C14.0294373,20 10,15.9705627 10,11 C10,6.02943725 14.0294373,2 19,2 Z M19,5 C15.6862915,5 13,7.6862915 13,11 C13,14.3137085 15.6862915,17 19,17 C22.3137085,17 25,14.3137085 25,11 C25,7.6862915 22.3137085,5 19,5 Z" fill="#FD4F00" fill-rule="nonzero"></path>
                <rect x="0" y="0" width="48" height="48"></rect>
            </g>
        </g>
    </g>
</svg>
