<?xml version="1.0" encoding="UTF-8"?>
<svg xmlns="http://www.w3.org/2000/svg" viewBox="0 0 101.36 101.36">
	<g>
		<g>
			<rect fill="#FFF" width="101.36" height="101.36"/>
			<g>
				<rect fill="#b3b3b3" x="21.11" y="14.51" width="59.15" height="74.34"/>
				<polygon fill="gray" points="21.11 14.51 49.95 14.51 21.11 38.66 21.11 14.51"/>
				<g>
					<path fill="gray"
						  d="M48.42,66.48l-.03-.83c-.1-1.62,.44-3.27,1.88-4.99,1.02-1.21,1.84-2.23,1.84-3.31s-.73-1.84-2.32-1.91c-1.05,0-2.32,.38-3.15,.95l-1.08-3.46c1.14-.67,3.05-1.3,5.31-1.3,4.2,0,6.1,2.32,6.1,4.96,0,2.42-1.49,4-2.7,5.34-1.18,1.3-1.65,2.54-1.62,3.97v.57h-4.23Zm-.83,4.39c0-1.68,1.18-2.89,2.83-2.89s2.83,1.21,2.86,2.89c0,1.65-1.14,2.89-2.86,2.89s-2.83-1.24-2.83-2.89Z"/>
					<rect fill="gray" x="26.39" y="42.04" width="48.58" height="4.39"/>
					<rect fill="gray" x="26.39" y="76.64" width="48.58" height="4.39"/>
					<rect fill="gray" x="26.39" y="50.69" width="11.82" height="4.39"/>
					<rect fill="gray" x="26.39" y="59.34" width="14.89" height="4.39"/>
					<rect fill="gray" x="26.39" y="67.99" width="14.89" height="4.39"/>
					<rect fill="gray" x="63.15" y="50.69" width="11.82" height="4.39"
						  transform="translate(138.11 105.77) rotate(180)"/>
					<rect fill="gray" x="60.08" y="59.34" width="14.89" height="4.39"
						  transform="translate(135.05 123.07) rotate(180)"/>
					<rect fill="gray" x="60.08" y="67.99" width="14.89" height="4.39"
						  transform="translate(135.05 140.36) rotate(180)"/>
				</g>
			</g>
		</g>
	</g>
</svg>
