<svg width="20px" height="18px" viewBox="0 0 20 18" version="1.1" xmlns="http://www.w3.org/2000/svg" xmlns:xlink="http://www.w3.org/1999/xlink">
    <g stroke="none" stroke-width="1" fill="none" fill-rule="evenodd">
        <g transform="translate(-30.000000, -1032.000000)" fill="#FFFFFF" fill-rule="nonzero">
            <g transform="translate(20.000000, 1020.000000)">
                <g transform="translate(10.857143, 12.571429)">
                    <g transform="translate(0.000000, 2.285714)">
                        <path d="M4.21978022,0 L4.21978022,6.77587302 C3.88923077,6.65174603 3.53758242,6.57142857 3.16483516,6.57142857 C1.41362637,6.57142857 0,8.03904762 0,9.85714286 C0,11.6752381 1.41362637,13.1428571 3.16483516,13.1428571 C4.78945055,13.1428571 6.11868132,11.8650794 6.29450549,10.2222222 L6.32967033,10.2222222 L6.32967033,2.19047619 L9.14285714,2.19047619 L9.14285714,0 L4.21978022,0 Z"></path>
                    </g>
                    <g transform="translate(10.857143, 0.000000)">
                        <path d="M3.42857143,0 L3.42857143,5.30285714 C3.16,5.20571429 2.87428571,5.14285714 2.57142857,5.14285714 C1.14857143,5.14285714 0,6.29142857 0,7.71428571 C0,9.13714286 1.14857143,10.2857143 2.57142857,10.2857143 C3.89142857,10.2857143 4.97142857,9.28571429 5.11428571,8 L5.14285714,8 L5.14285714,1.71428571 L7.42857143,1.71428571 L7.42857143,0 L3.42857143,0 Z"></path>
                    </g>
                </g>
            </g>
        </g>
    </g>
</svg>
