<svg xmlns="http://www.w3.org/2000/svg" viewBox="0 0 21.52 20.43">
	<g>
		<path fill="#fff"
			  d="m1.15,19.83c-.63-.14-.87-.34-.98-.95-.15-.86.12-.97-.03-1.27-.16-.33-.16-.63-.12-.64.6-.18,1.2-.33,1.8-.48.3-.08.68-.05.89-.22.97-.78,1.9-1.61,2.83-2.44.14-.12.22-.34.25-.53.2-1.32.42-2.63.56-3.95.1-.94.38-1.66,1.41-1.9.34-.08.65-.28.97-.43.76-.36,1.09-1.38.58-2.04-.89-1.16-.93-2.44-.6-3.74C8.87.6,9.38,0,10.47,0c1.02,0,1.47.46,1.69.92.66,1.36.5,2.66-.32,3.92-.57.87-.31,1.77.6,2.22.14.07.26.17.41.2,1.54.29,1.9,1.37,1.94,2.75.02.94.21,1.88.34,2.81.09.58.37.99.9,1.37.83.59,1.51,1.39,2.3,2.04.24.19.65.16.98.24.59.16,1.17.32,1.76.49.03,0,.07.06.06.07-.1.47.21.47.38,1.41,0,.7-1.22,1.24-1.58,1.34-6.05.8-12.22.92-18.79.05Zm1.32-2.33c.85,0,3.35-.56,4.37-.59.13,0,.31-.17.37-.31.31-.76,1.26-1.52,1.48-2.31.14-.52-.52-3.15-.46-3.82-.84,3.27-1.55,4.13-2.27,4.84-.73.72-2.71,1.77-3.47,2.19Zm17.34,0c-1.36-.46-3.51-1.13-5.03-2.9-.85-.99-1.42-2.45-1.76-4.09-.11.66-.78,3.3-.61,3.84.23.75,1.24,1.47,1.57,2.19.07.15.28.33.43.33.95.03,4.39.63,5.41.63Z"/>
	</g>
</svg>
