<svg xmlns="http://www.w3.org/2000/svg" viewBox="0 0 78.75 52.93">
	<g>
		<g>
			<path fill="#333"
				  d="M51.06,17.93H28.69c-2.04,0-3.69-1.65-3.69-3.69V3.69c0-2.04,1.65-3.69,3.69-3.69h8.7c1.07,0,2.08,.46,2.78,1.27l5.03,5.76c.7,.8,1.72,1.27,2.78,1.27h3.06c2.04,0,3.69,1.65,3.69,3.69v2.25c0,2.04-1.65,3.69-3.69,3.69Z"/>
			<path fill="#4d4d4d"
				  d="M75.06,52.93H3.69c-2.04,0-3.69-1.65-3.69-3.69V3.69C0,1.65,1.65,0,3.69,0h30.7c1.07,0,2.08,.46,2.78,1.27l5.03,5.76c.7,.8,1.72,1.27,2.78,1.27h30.06c2.04,0,3.69,1.65,3.69,3.69V49.24c0,2.04-1.65,3.69-3.69,3.69Z"/>
		</g>
	</g>
</svg>
