<?xml version="1.0" encoding="UTF-8"?>
<svg width="268px" height="125px" viewBox="0 0 268 125" version="1.1" xmlns="http://www.w3.org/2000/svg" xmlns:xlink="http://www.w3.org/1999/xlink">
    <title>7436D244-0F17-4186-A7A6-EBAB970EC750</title>
    <g stroke="none" stroke-width="1" fill="none" fill-rule="evenodd">
        <g transform="translate(-73.000000, -96.000000)" fill="#FFFFFE">
            <g transform="translate(73.811200, 96.811700)">
                <path d="M266.656,-4.26325641e-14 L266.656,78.859 C266.656,96.50575 252.285774,110.895628 234.512611,111.181661 L233.973,111.186 L157.904,111.186 C150.313021,111.186 143.166508,114.069278 137.723547,119.314572 L137.371,119.66 L133.328,123.691 L129.285,119.659 C123.916702,114.312234 116.81748,111.315196 109.246421,111.190082 L108.752,111.186 L32.485,111.186 C14.75212,111.186 0.2917939,96.9725898 0.004360666,79.3927419 L0,78.859 L0,-4.26325641e-14 L266.656,-4.26325641e-14 Z M258.969,7.688 L7.688,7.688 L7.688,78.859 C7.688,92.30914 18.5906324,103.277667 32.0755833,103.495692 L32.485,103.499 L108.752,103.499 C117.917,103.499 126.573,106.825 133.328,112.904 C139.95084,106.9456 148.394598,103.633102 157.354783,103.502985 L157.904,103.499 L233.973,103.499 C247.61718,103.499 258.744463,92.6649746 258.965644,79.2658119 L258.969,78.859 L258.969,7.688 Z M85.5329,46.7346 C92.5929,46.7346 97.3009,51.7546 97.3009,58.9196 L97.2993174,59.1640333 L97.2993174,59.1640333 L97.2874061,59.6336975 L97.2874061,59.6336975 L97.2654995,60.0759766 L97.2654995,60.0759766 L97.2355964,60.4887323 C97.2300573,60.5549458 97.2242682,60.6198401 97.218271,60.6833706 L97.1801217,61.0478317 L97.1801217,61.0478317 L97.1389737,61.3774234 L97.1389737,61.3774234 L97.0760024,61.8017532 L97.0760024,61.8017532 L97.0002036,62.2255254 L97.0002036,62.2255254 L96.9349,62.5286 L96.9349,62.5286 L79.8839,62.5286 C80.1979,66.8176 82.6039,68.9096 85.6899,68.9096 C88.4619,68.9096 90.3449,67.0786 90.7629,64.5686 L96.9869,68.0726 C95.1559,71.4196 91.1809,74.3486 85.6899,74.3486 C78.3149,74.3486 72.9289,69.2226 72.9289,60.5406 C72.9289,51.9646 78.4199,46.7346 85.5329,46.7346 Z M129.1929,46.7336 C134.4229,46.7336 139.2339,49.2436 141.2739,52.7486 L134.9449,56.3046 C134.3179,53.9506 132.3309,52.1206 129.4549,52.1206 C127.5719,52.1206 126.0029,52.9576 126.0029,54.4746 C126.0029,55.5154095 126.950047,56.0686522 128.415766,56.5399085 L128.828043,56.666705 L128.828043,56.666705 L129.264102,56.7912643 L129.264102,56.7912643 L129.722011,56.9154148 L129.722011,56.9154148 L131.468872,57.3731185 L131.468872,57.3731185 L132.0012,57.5180548 L132.0012,57.5180548 L132.820134,57.7541184 L132.820134,57.7541184 L133.3769,57.9266 L133.3769,57.9266 L133.880794,58.0896796 C133.964393,58.1173926 134.047782,58.1453855 134.130932,58.1736783 L134.626724,58.3471935 C134.7088,58.3767658 134.790578,58.4066779 134.872031,58.4369499 L135.356601,58.6230598 L135.356601,58.6230598 L135.831958,58.8187658 L135.831958,58.8187658 L136.296714,59.0250273 C139.127176,60.3314925 141.2739,62.2948041 141.2739,65.9276 C141.2739,71.2106 136.3569,74.3486 130.6569,74.3486 C124.4859,74.3486 119.6219,71.7336 117.4769,67.5496 L123.9099,63.9406 C124.7479,66.8176 127.0479,68.9616 130.5519,68.9616 C132.5919,68.9616 134.0569,68.0726 134.0569,66.3986 C134.0569,65.0981676 132.925095,64.4241113 131.251904,63.8741669 L130.803527,63.7331883 L130.803527,63.7331883 L130.332916,63.595859 L130.332916,63.595859 L129.842403,63.4601975 L129.842403,63.4601975 L128.274735,63.043405 L128.274735,63.043405 L127.044436,62.7075529 L127.044436,62.7075529 L126.581392,62.5716803 L126.581392,62.5716803 L126.114668,62.4260809 C126.036681,62.4009662 125.958621,62.3754182 125.880527,62.3494227 L125.411888,62.1879675 L125.411888,62.1879675 L124.944374,62.0150985 C124.866655,61.9852983 124.789064,61.9549945 124.71164,61.9241729 L124.249417,61.7329177 C124.096225,61.6670199 123.944021,61.5989387 123.793125,61.5285615 L123.344685,61.3104296 C120.829403,60.0340425 118.7849,58.0616189 118.7849,54.8406 C118.7849,49.8716 123.5439,46.7336 129.1929,46.7336 Z M110.2189,36.1166 L110.2189,65.4056 C110.2189,66.6596 110.4019,67.5326 110.7679,68.0206 C111.1339,68.5086 111.5429,68.7516 112.5199,68.7516 C113.1119,68.7516 113.6259,68.7086 114.0629,68.6216 C114.426233,68.5491 114.843039,68.4342389 115.315053,68.2770167 L115.6049,68.1776 L114.9779,73.1456 C114.4199,73.4946 113.6869,73.7646 112.7809,73.9556 C111.8739,74.1476 110.9849,74.2436 110.1139,74.2436 C107.5679,74.2436 105.7119,73.6246 104.5439,72.3876 C103.428036,71.2058727 102.846111,69.3489781 102.795514,66.8169161 L102.7919,66.4506 L102.7919,36.1166 L110.2189,36.1166 Z M45.3349,37.5296 L45.3349,51.8596 L59.7699,51.8596 L59.7699,37.5296 L67.4579,37.5296 L67.4579,73.7206 L59.7699,73.7206 L59.7699,58.7106 L45.3349,58.7106 L45.3349,73.7206 L37.6469,73.7206 L37.6469,37.5296 L45.3349,37.5296 Z M154.2439,47.3616 L154.2439,73.7206 L146.8179,73.7206 L146.8179,47.3616 L154.2439,47.3616 Z M176.9419,46.7336 C181.926882,46.7336 185.09339,50.1668878 185.202962,56.4863021 L185.2059,56.8276 L185.2059,73.7206 L177.7789,73.7206 L177.7789,58.2926 C177.7789,54.7886 176.5769,52.9576 173.8049,52.9576 C171.106846,52.9576 169.351682,54.938047 169.258779,57.839687 L169.2549,58.0836 L169.2549,73.7206 L161.8799,73.7206 L161.8799,47.3616 L169.2549,47.3616 L168.8889,51.7026 L169.0459,51.7026 C170.3529,49.2966 172.6019,46.7336 176.9419,46.7336 Z M192.6849,35.8556 L200.0589,35.8556 L200.058021,53.6014934 L200.058021,53.6014934 L200.051294,54.1554513 L200.051294,54.1554513 L200.03032,54.9750126 L200.03032,54.9750126 L200.010276,55.5085117 L200.010276,55.5085117 L199.973169,56.2803767 L199.973169,56.2803767 L199.914848,57.237498 L199.914848,57.237498 L199.836952,58.2773143 L199.836952,58.2773143 L199.730964,59.445488 L199.730964,59.445488 L199.6929,59.8086 L199.6929,59.8086 L199.8499,59.8086 L200.351604,58.9871926 L200.351604,58.9871926 L200.952261,58.025979 L200.952261,58.025979 L201.434466,57.2707608 L201.434466,57.2707608 L201.957303,56.4703275 L201.957303,56.4703275 L202.363316,55.8642098 L202.363316,55.8642098 L202.771274,55.2717344 L202.771274,55.2717344 L203.0399,54.8926 L203.0399,54.8926 L208.6879,47.3616 L217.3179,47.3616 L208.4269,57.8216 L218.1029,73.7206 L210.0479,73.7206 L203.5619,63.1566 L200.0589,67.6016 L200.0589,73.7206 L192.6849,73.7206 L192.6849,35.8556 Z M229.1379,47.3616 L229.1379,73.7206 L221.7109,73.7206 L221.7109,47.3616 L229.1379,47.3616 Z M85.5329,52.0686 C82.8129,52.0686 80.6169,54.0036 80.0409,57.6126 L90.4489,57.6126 C90.4489,54.4216 88.4089,52.0686 85.5329,52.0686 Z M150.5309,35.9596 C152.9369,35.9596 154.8199,37.6856 154.8199,40.0916 C154.8199,42.4976 152.9369,44.2226 150.5309,44.2226 C148.1249,44.2226 146.2419,42.4976 146.2419,40.0916 C146.2419,37.6856 148.1249,35.9596 150.5309,35.9596 Z M225.4249,35.9596 C227.8299,35.9596 229.7129,37.6856 229.7129,40.0916 C229.7129,42.4976 227.8299,44.2226 225.4249,44.2226 C223.0189,44.2226 221.1359,42.4976 221.1359,40.0916 C221.1359,37.6856 223.0189,35.9596 225.4249,35.9596 Z"></path>
            </g>
        </g>
    </g>
</svg>
