<?xml version="1.0" encoding="UTF-8"?>
<svg width="48px" height="48px" viewBox="0 0 48 48" version="1.1" xmlns="http://www.w3.org/2000/svg" xmlns:xlink="http://www.w3.org/1999/xlink">
    <title>3A7CBD4E-C565-4073-A633-77136A265A07</title>
    <g stroke="none" stroke-width="1" fill="none" fill-rule="evenodd">
        <g transform="translate(-1060.000000, -616.000000)">
            <g transform="translate(1060.000000, 616.000000)">
                <path d="M47.7717895,23.8854737 C47.7717895,37.0770526 37.0778947,47.7701053 23.8863158,47.7701053 C10.6947368,47.7701053 -2.692583e-13,37.0770526 -2.692583e-13,23.8854737 C-2.692583e-13,10.6938947 10.6947368,3.32085237e-13 23.8863158,3.32085237e-13 C37.0778947,3.32085237e-13 47.7717895,10.6938947 47.7717895,23.8854737" fill="#FFFFFF"></path>
                <path d="M25.2160842,21.0526316 C25.2842947,21.0526316 25.3356632,21.0871579 25.3617684,21.1385263 L27.2413474,25.1730526 L27.2674526,25.1730526 L29.1478737,21.1385263 C29.1731368,21.0871579 29.2160842,21.0526316 29.2927158,21.0526316 L29.4291368,21.0526316 C29.5234526,21.0526316 29.5748211,21.1124211 29.5832421,21.1814737 L30.5920842,26.9246316 C30.6173474,27.0442105 30.5491368,27.1216842 30.4379789,27.1216842 L29.6607158,27.1216842 C29.5832421,27.1216842 29.5141895,27.0534737 29.4973474,26.9936842 L28.9929263,23.7532632 L28.9676632,23.7532632 L27.4712421,27.1132632 C27.4552421,27.1637895 27.4038737,27.2075789 27.3264,27.2075789 L27.1722947,27.2075789 C27.0956632,27.2075789 27.0535579,27.1637895 27.0274526,27.1132632 L25.5141895,23.7532632 L25.4889263,23.7532632 L24.9937684,26.9936842 C24.9853474,27.0534737 24.9162947,27.1216842 24.8396632,27.1216842 L24.0708211,27.1216842 C23.9588211,27.1216842 23.8914526,27.0442105 23.9074526,26.9246316 L24.9247158,21.1814737 C24.9339789,21.1124211 24.9853474,21.0526316 25.0788211,21.0526316 L25.2160842,21.0526316 Z M6.01010526,21.1386105 C6.10442105,21.1386105 6.17263158,21.2152421 6.17263158,21.3011368 L6.17263158,23.5655579 L8.95915789,23.5655579 L8.95915789,21.3011368 C8.95915789,21.2152421 9.02821053,21.1386105 9.12168421,21.1386105 L9.90821053,21.1386105 C9.99326316,21.1386105 10.0698947,21.2152421 10.0698947,21.3011368 L10.0698947,26.9592421 C10.0698947,27.0442947 9.99326316,27.1217684 9.90821053,27.1217684 L9.12168421,27.1217684 C9.02821053,27.1217684 8.95915789,27.0442947 8.95915789,26.9592421 L8.95915789,24.5996632 L6.17263158,24.5996632 L6.17263158,26.9592421 C6.17263158,27.0442947 6.10442105,27.1217684 6.01010526,27.1217684 L5.21515789,27.1217684 C5.12926316,27.1217684 5.05263158,27.0442947 5.05263158,26.9592421 L5.05263158,21.3011368 C5.05263158,21.2152421 5.12926316,21.1386105 5.21515789,21.1386105 L6.01010526,21.1386105 Z M16.3785263,21.1386105 C16.472,21.1386105 16.5402105,21.2152421 16.5402105,21.3011368 L16.5402105,22.0017684 C16.5402105,22.0868211 16.472,22.1642947 16.3785263,22.1642947 L13.848,22.1642947 L13.848,23.5655579 L15.9591579,23.5655579 C16.0442105,23.5655579 16.1216842,23.6421895 16.1216842,23.7280842 L16.1216842,24.4379789 C16.1216842,24.5314526 16.0442105,24.5996632 15.9591579,24.5996632 L13.848,24.5996632 L13.848,26.0960842 L16.3785263,26.0960842 C16.472,26.0960842 16.5402105,26.1735579 16.5402105,26.2586105 L16.5402105,26.9592421 C16.5402105,27.0442947 16.472,27.1217684 16.3785263,27.1217684 L12.8989474,27.1217684 C12.8054737,27.1217684 12.7364211,27.0442947 12.7364211,26.9592421 L12.7364211,21.3011368 C12.7364211,21.2152421 12.8054737,21.1386105 12.8989474,21.1386105 L16.3785263,21.1386105 Z M19.8228211,21.1386105 C19.9087158,21.1386105 19.9845053,21.2152421 19.9845053,21.3011368 L19.9845053,26.0960842 L22.1638737,26.0960842 C22.2590316,26.0960842 22.3272421,26.1735579 22.3272421,26.2586105 L22.3272421,26.9592421 C22.3272421,27.0442947 22.2590316,27.1217684 22.1638737,27.1217684 L19.0362947,27.1217684 C18.9419789,27.1217684 18.8737684,27.0442947 18.8737684,26.9592421 L18.8737684,21.3011368 C18.8737684,21.2152421 18.9419789,21.1386105 19.0362947,21.1386105 L19.8228211,21.1386105 Z M36.5150316,21.1386105 C36.6093474,21.1386105 36.6784,21.2152421 36.6784,21.3011368 L36.6784,22.0017684 C36.6784,22.0868211 36.6093474,22.1642947 36.5150316,22.1642947 L33.9845053,22.1642947 L33.9845053,23.5655579 L36.0965053,23.5655579 C36.1815579,23.5655579 36.2590316,23.6421895 36.2590316,23.7280842 L36.2590316,24.4379789 C36.2590316,24.5314526 36.1815579,24.5996632 36.0965053,24.5996632 L33.9845053,24.5996632 L33.9845053,26.0960842 L36.5150316,26.0960842 C36.6093474,26.0960842 36.6784,26.1735579 36.6784,26.2586105 L36.6784,26.9592421 C36.6784,27.0442947 36.6093474,27.1217684 36.5150316,27.1217684 L33.0362947,27.1217684 C32.9428211,27.1217684 32.8737684,27.0442947 32.8737684,26.9592421 L32.8737684,21.3011368 C32.8737684,21.2152421 32.9428211,21.1386105 33.0362947,21.1386105 L36.5150316,21.1386105 Z M42.2419368,21.1385263 C42.3354105,21.1385263 42.4044632,21.216 42.4044632,21.3010526 L42.4044632,22.0016842 C42.4044632,22.0867368 42.3354105,22.1642105 42.2419368,22.1642105 L40.9341474,22.1642105 L40.9341474,26.9591579 C40.9341474,27.0442105 40.8575158,27.1216842 40.7716211,27.1216842 L39.9766737,27.1216842 C39.8916211,27.1216842 39.8141474,27.0442105 39.8141474,26.9591579 L39.8141474,22.1642105 L38.5063579,22.1642105 C38.4128842,22.1642105 38.3446737,22.0867368 38.3446737,22.0016842 L38.3446737,21.3010526 C38.3446737,21.216 38.4128842,21.1385263 38.5063579,21.1385263 L42.2419368,21.1385263 Z" fill="#FD4F00"></path>
            </g>
        </g>
    </g>
</svg>
