<?xml version="1.0" encoding="UTF-8"?>
<svg width="48px" height="48px" viewBox="0 0 48 48" version="1.1" xmlns="http://www.w3.org/2000/svg" xmlns:xlink="http://www.w3.org/1999/xlink">
    <title>00066FF1-01DA-42CF-A947-3119DF167ADB</title>
    <defs>
        <filter>
            <feColorMatrix in="SourceGraphic" type="matrix" values="0 0 0 0 0.000000 0 0 0 0 0.000000 0 0 0 0 0.000000 0 0 0 1.000000 0"></feColorMatrix>
        </filter>
    </defs>
    <g stroke="none" stroke-width="1" fill="none" fill-rule="evenodd">
        <g transform="translate(-741.000000, -721.000000)" filter="url(#filter-1)">
            <g transform="translate(741.000000, 721.000000)">
                <path d="M37,5 C39.7614237,5 42,7.23857625 42,10 L42,26 C42,27.0118742 41.6994209,27.9535444 41.1826794,28.7405938 C42.0982289,29.3018224 42.8294776,30.1566417 43.2327325,31.2051046 L45.4319472,36.9230628 C46.0267232,38.4694804 45.2552653,40.2052608 43.7088476,40.8000368 C43.3651818,40.932216 43.000119,41 42.6319104,41 L5.3680896,41 C3.71123535,41 2.3680896,39.6568542 2.3680896,38 C2.3680896,37.6317914 2.4358736,37.2667286 2.56805278,36.9230628 L4.76726746,31.2051046 C5.17052242,30.1566417 5.90177105,29.3018224 6.81712493,28.7394691 C6.30057914,27.9535444 6,27.0118742 6,26 L6,10 C6,7.23857625 8.23857625,5 11,5 L37,5 Z M38.5660045,31 L9.43399549,31 C8.66162157,31 7.96369852,31.4439685 7.63254532,32.1311412 L7.56730428,32.2820418 L5.3680896,38 L42.6319104,38 L40.4326957,32.2820418 C40.1554296,31.56115 39.4905138,31.069122 38.7302671,31.0067223 L38.5660045,31 Z M37,8 L11,8 C9.9456382,8 9.08183488,8.81587779 9.00548574,9.85073766 L9,10 L9,26 C9,27.0543618 9.81587779,27.9181651 10.8507377,27.9945143 L11,28 L37,28 C38.0543618,28 38.9181651,27.1841222 38.9945143,26.1492623 L39,26 L39,10 C39,8.9456382 38.1841222,8.08183488 37.1492623,8.00548574 L37,8 Z M26.202,15.928 L24.276,25 L21,25 L22.926,15.928 L26.202,15.928 Z M25.212,11.788 C25.68,11.788 26.067,11.932 26.373,12.22 C26.679,12.508 26.832,12.868 26.832,13.3 C26.832,13.84 26.643,14.281 26.265,14.623 C25.887,14.965 25.41,15.136 24.834,15.136 C24.366,15.136 23.982,14.995 23.682,14.713 C23.382,14.431 23.232,14.074 23.232,13.642 C23.232,13.102 23.418,12.658 23.79,12.31 C24.162,11.962 24.636,11.788 25.212,11.788 Z" fill="#FD4F00" fill-rule="nonzero"></path>
                <rect x="0" y="0" width="48" height="48"></rect>
            </g>
        </g>
    </g>
</svg>
