<?xml version="1.0" encoding="UTF-8"?>
<svg width="48px" height="48px" viewBox="0 0 48 48" version="1.1" xmlns="http://www.w3.org/2000/svg" xmlns:xlink="http://www.w3.org/1999/xlink">
    <title>2E7BD61C-7EA0-4969-80FE-1DDF34D1ACCC</title>
    <defs>
        <filter id="terveydenhuolto-icon-filter">
            <feColorMatrix in="SourceGraphic" type="matrix" values="0 0 0 0 0.000000 0 0 0 0 0.000000 0 0 0 0 0.000000 0 0 0 1.000000 0"></feColorMatrix>
        </filter>
    </defs>
    <g stroke="none" stroke-width="1" fill="none" fill-rule="evenodd">
        <g transform="translate(-270.000000, -721.000000)" filter="url(#terveydenhuolto-icon-filter)">
            <g transform="translate(270.000000, 721.000000)">
                <path d="M11.4609375,4 L11.4609375,7 L9.5,7 L9.5,12.3264675 C9.51340383,18.8522728 12.160102,21.8853568 17.8280128,21.9968074 C23.396734,21.8872811 26.0490506,18.9577637 26.153111,12.6667072 L26.15625,12.3264675 L26.15625,7 L24.1953125,7 L24.1953125,4 L29.15625,4 L29.15625,12.3295492 L29.152723,12.7017558 C29.0266884,20.1155845 25.5755054,24.3434856 19.1104693,24.9295113 L19.110698,33.2286709 C19.0369555,39.5529012 21.7154885,42.4223633 27.6092778,42.4223633 C33.3215625,42.4223633 36.0135751,39.7269153 36.1068264,33.8031401 C34.023145,33.1998729 32.5,31.2778112 32.5,29 C32.5,26.2385763 34.7385763,24 37.5,24 C40.2614237,24 42.5,26.2385763 42.5,29 C42.5,31.1989802 41.0804575,33.0664084 39.1077624,33.7358948 C39.015364,41.3450069 35.0386567,45.4223633 27.6092778,45.4223633 C20.122221,45.4223633 16.1416535,41.2814521 16.1094175,33.5750295 L16.1099604,24.883953 C9.92569818,24.1498003 6.62669924,19.947207 6.50352702,12.7017558 L6.5,12.3295492 L6.5,4 L11.4609375,4 Z M37.5,27 C36.3954305,27 35.5,27.8954305 35.5,29 C35.5,30.1045695 36.3954305,31 37.5,31 C38.6045695,31 39.5,30.1045695 39.5,29 C39.5,27.8954305 38.6045695,27 37.5,27 Z" fill="#FD4F00" fill-rule="nonzero"></path>
                <rect x="0" y="0" width="48" height="48"></rect>
            </g>
        </g>
    </g>
</svg>
