<?xml version="1.0" encoding="utf-8"?>
<!-- Generator: Adobe Illustrator 26.5.0, SVG Export Plug-In . SVG Version: 6.00 Build 0)  -->
<svg version="1.1" xmlns="http://www.w3.org/2000/svg" xmlns:xlink="http://www.w3.org/1999/xlink" x="0px" y="0px"
	 viewBox="0 0 500 430.6" style="enable-background:new 0 0 500 430.6;" xml:space="preserve">
<style type="text/css">
	.st0{fill:#FFFFFF;stroke:#000000;stroke-width:1.56;stroke-miterlimit:10;}
	.st1{fill:none;stroke:#FFFFFF;stroke-width:2.1;stroke-linecap:round;stroke-miterlimit:10;}
	.st2{fill:none;stroke:#000000;stroke-width:0.52;stroke-miterlimit:10;}
	.st3{fill:#FFFFF8;}
</style>
<g>
	<g>
		<path d="M379,141.3l47.4-1.1c8.2,0,14.8,6.6,14.8,14.8l0.1,187.2l0,0c0,8.2-6.6,14.8-14.8,14.8H73.8c-8.2,0-14.8-6.6-14.8-14.8
			V155c0-8.2,6.6-14.8,14.8-14.8H127l3-27.9h-82c-8.3,0-15.1,6.8-15.1,15.1v255.8c0,0.9,0.8,1.7,1.7,1.7h431.4
			c0.9,0,1.7-0.8,1.7-1.7V127.4c-0.1-8.3-6.8-15.1-15.2-15.1l0,0h-76.7L379,141.3z"/>
		<path d="M493.8,395H312.1c-2.9,5.6-7.9,13.2-13.5,13.2h-97.2c-5.6,0-10.6-7.6-13.5-13.2H6.2c-3.4,0-6.2,2.8-6.2,6.2v11.1
			c0,10.1,8.2,18.3,18.3,18.3h463.3c10.1,0,18.3-8.2,18.3-18.3v-11.1C500,397.8,497.2,395,493.8,395z"/>
		<path d="M202,317.8l5.6-22.5c2.4-9.8,2.2-17.9-0.7-25.5c-2-5.3-4.9-8.4-10.3-11c-52.4-25.3-79.9-68.2-79.4-124.1
			c0.5-57.1,28.6-99.7,81.2-123.1c30.3-13.5,64.2-15.3,95.5-5.1c31,10.1,57.6,31.4,74.8,60c34.4,57,20.7,132.1-31.8,174.6
			c-21.7,17.6-46.5,27.4-73.8,29.1c-5.4,0.3-7,1.6-8.9,5.1c-7,12.6-17.5,22.7-31.9,30.9L202,317.8L202,317.8z M253,19.8
			c-15.5,0-31.3,3.2-46.5,10c-45.6,20.3-69,55.7-69.4,105.1c-0.4,48.3,22.5,84,68.2,106c9.9,4.8,16.3,11.7,20.2,21.7
			c1.7,4.5,2.9,9.1,3.4,13.9c3.1-3.3,5.8-6.9,7.9-10.7c5.4-9.7,13.4-14.6,25-15.3c23.1-1.5,44.2-9.8,62.6-24.7
			c44.9-36.4,56.6-100.4,27.4-148.9C329.7,40.3,292.1,19.8,253,19.8L253,19.8z"/>
		<g>
			<g>
				<path class="st0" d="M177.1,129.4c0,0,29.6,13.2,89.1,16.3s67.5-1.5,67.5-1.5s7.3-2.1,11.3-7.4s9.6-21.1,0-24.5
					s-49.2-13.9-49.2-13.9s-58.6-1.6-59.9-1.6S196,89.1,184,89.7s-24.4,1.4-17.6,21.7C168,116.1,177.1,129.4,177.1,129.4
					L177.1,129.4z"/>
				<path d="M175.9,128.9l-1.1,23.9c0,0,63.2,17,112.1,17c34.1,0,40.7-7.7,40.7-7.7l6.2-18.1c0,0-48.9,8.7-122.8-5.6
					C202.2,136.8,175.9,128.8,175.9,128.9L175.9,128.9z"/>
				<path d="M172.9,161.2c-1.3,2.7-2.5,5.8-2.5,5.8s-5,13.6,10.8,19.8s44.8,1.1,95-7.8c15.7-2.8,14.1-9.2,14.1-9.2s-45-0.3-79.2-8.4
					l-34.1-8.1C177,153.3,173.9,159.2,172.9,161.2z"/>
				<path class="st1" d="M176.2,153.2c0,0,92.9,30,147.9,10.7c0,0,1.1-0.5,2.2-2.1"/>
			</g>
			<path class="st2" d="M287.4,171.4c0,0,21.3-1.5,31.2-4.5s8.9-5.9,8.9-5.9"/>
			<path class="st2" d="M175.2,151c-0.1,0.8-1.2,2.4,1.6,3.6l4.7,2.5"/>
		</g>
	</g>
</g>
<g>
	<g>
		<path class="st3" d="M202.6,152.9c0,0-0.7,0.8-1.1,0.8s-0.9-0.5-0.9-0.7s1.4-0.6,1.4-0.6s0.4-0.2,0.1-0.3c-0.3,0-0.5,0.1-0.7-0.4
			c-0.2-0.6,0.6-0.1,0.6-0.1l-0.1-0.7l-0.7-0.1v-0.3c0,0,0.8-0.3,0.9-0.6c0-0.3-0.6-0.6-0.6-0.6s-1.8-0.7-1.4-3
			c0.2-1,1.4-2.1,1.4-2.1s0.9-1,1-1.3c0.1-0.4,0.2-0.4,0.2-0.6s-0.4-0.1-0.4-0.1s-0.5,0-0.4-0.5s0.6-0.4,0.6-0.4s0.9,0,0.9,0.9
			s-1,2-1,2s-1.1,1.4-1.1,2.3c0,0.9,0.4,1.2,0.4,1.2l0.7,0.1c0,0,0.3,0,0.1-0.3c-0.1-0.2-0.3-0.3-0.3-0.3s-0.1-0.2-0.1-0.3
			s0.2-0.2,0.2-0.2l1.1,0.2L202.6,152.9z"/>
		<path class="st3" d="M200.8,141.9c0,0,0.5-0.3,0.8-0.3s0.1,0.4,0.1,0.4s-0.4,0.7-1,0.9s-0.6,0-0.6,0l0.7-0.5l-0.8,0.4
			C200.1,142.7,199.9,142.4,200.8,141.9z"/>
		<path class="st3" d="M199.9,143.3c0,0,0.5-0.1,0.9-0.1s0,0.4,0,0.4s-0.6,0.6-1.2,0.6c-0.6,0.1-0.5-0.2-0.5-0.2l0.9-0.3l-0.8,0.2
			C199.1,143.9,199,143.6,199.9,143.3z"/>
		<path class="st3" d="M199,144.7c0,0,0.5-0.3,0.8-0.4c0.3,0,0.1,0.4,0.1,0.4s-0.4,0.8-1,1.1s-0.5,0-0.5,0l0.7-0.6l-0.7,0.4
			C198.3,145.7,198.2,145.4,199,144.7z"/>
		<path class="st3" d="M198.6,146.5c0,0,0.3-0.4,0.6-0.5s0.3,0.3,0.3,0.3s-0.1,0.7-0.6,1.1c-0.4,0.4-0.5,0.2-0.5,0.2l0.5-0.7
			l-0.5,0.6C198.3,147.4,198.1,147.2,198.6,146.5z"/>
		<path class="st3" d="M197.3,145.9c0,0,0-0.6,0.2-0.9s0.4,0.1,0.4,0.1s0.4,0.8,0.3,1.4c-0.1,0.7-0.3,0.5-0.3,0.5l-0.1-1l-0.1,0.9
			C197.6,147,197.3,147,197.3,145.9z"/>
		<path class="st3" d="M197.4,148.4c0,0-0.3-0.6-0.3-1.1s0.5-0.2,0.5-0.2s0.9,0.6,1.1,1.4c0.2,0.8-0.1,0.8-0.1,0.8l-0.7-1l0.4,1
			C198.4,149.3,198.1,149.6,197.4,148.4z"/>
		<path class="st3" d="M198.3,150.5c0,0-0.5-0.4-0.7-0.8c-0.2-0.4,0.4-0.3,0.4-0.3s0.9,0.2,1.4,0.7c0.5,0.6,0.2,0.6,0.2,0.6
			l-0.9-0.6l0.7,0.7C199.4,150.9,199.2,151.2,198.3,150.5z"/>
		<path class="st3" d="M199.9,152.4c0,0-0.7-0.3-1-0.7s0.4-0.6,0.5-0.6c0.5-0.1,1.1,0,1.8,0.4s0.3,0.7,0.3,0.7l-1.2-0.4l1,0.6
			C201.3,152.4,201.1,152.9,199.9,152.4z"/>
		<path class="st3" d="M198.9,148.8c0,0-0.1-0.6,0.1-1c0.1-0.4,0.5,0,0.5,0s0.5,0.8,0.5,1.5s-0.3,0.6-0.3,0.6l-0.2-1v1
			C199.5,149.9,199.1,150,198.9,148.8z"/>
		<path class="st3" d="M200.2,150.4c0,0-0.2-0.4-0.2-0.7s0.3-0.1,0.3-0.1s0.5,0.3,0.7,0.8s0,0.5,0,0.5l-0.4-0.6l0.3,0.6
			C200.9,151,200.7,151.1,200.2,150.4z"/>
		<path class="st3" d="M198,143.8c0,0,0.1-0.5,0.3-0.7s0.3,0.3,0.3,0.3s0.2,0.8-0.1,1.3c-0.2,0.5-0.4,0.3-0.4,0.3l0.1-0.9l-0.3,0.7
			C198.1,144.9,197.8,144.7,198,143.8z"/>
		<path class="st3" d="M199.2,142.6c0,0,0.2-0.3,0.5-0.5c0.2-0.1,0.2,0.2,0.2,0.2s-0.1,0.6-0.4,0.9c-0.3,0.4-0.4,0.2-0.4,0.2
			l0.3-0.6l-0.4,0.5C199,143.3,198.8,143.2,199.2,142.6z"/>
	</g>
	<g>
		<path class="st3" d="M202.6,152.9c0,0,0.4,1,0.8,1.1s1-0.2,1-0.4s-1.2-1-1.2-1s-0.4-0.3,0-0.3s0.4,0.3,0.8-0.2
			c0.4-0.5-0.5-0.2-0.5-0.2l0.3-0.6l0.7,0.1v-0.3c0,0-0.7-0.6-0.6-0.9c0-0.3,0.8-0.3,0.8-0.3s1.9-0.1,2.3-2.4c0.2-1-0.7-2.5-0.7-2.5
			s-0.5-1.2-0.5-1.6c0-0.4-0.1-0.4,0-0.7s0.4,0.1,0.4,0.1s0.5,0.1,0.6-0.3s-0.4-0.5-0.4-0.5s-0.9-0.3-1.2,0.6
			c-0.3,0.9,0.3,2.3,0.3,2.3s0.6,1.7,0.3,2.5s-0.8,1-0.8,1l-0.7-0.1c0,0-0.3-0.1,0-0.3c0.2-0.1,0.4-0.2,0.4-0.2s0.2-0.1,0.2-0.3
			s-0.2-0.3-0.2-0.3l-1.1-0.2L202.6,152.9z"/>
		<path class="st3" d="M207.7,143c0,0-0.4-0.4-0.7-0.5s-0.2,0.3-0.2,0.3s0.2,0.8,0.7,1.2s0.5,0.2,0.5,0.2l-0.5-0.8l0.6,0.6
			C208.1,144,208.3,143.8,207.7,143z"/>
		<path class="st3" d="M208.1,144.6c0,0-0.5-0.3-0.8-0.3s-0.2,0.4-0.2,0.4s0.4,0.7,1,1s0.6,0,0.6,0l-0.7-0.6l0.7,0.4
			C208.7,145.5,208.9,145.2,208.1,144.6z"/>
		<path class="st3" d="M208.5,146.3c0,0-0.3-0.4-0.6-0.6c-0.3-0.1-0.2,0.4-0.2,0.4s0.2,0.9,0.6,1.3s0.5,0.2,0.5,0.2l-0.5-0.8
			l0.6,0.7C208.9,147.4,209.1,147.1,208.5,146.3z"/>
		<path class="st3" d="M208.4,148.1c0,0-0.2-0.5-0.4-0.7s-0.3,0.2-0.3,0.2s-0.1,0.7,0.2,1.2s0.4,0.3,0.4,0.3l-0.2-0.8l0.3,0.7
			C208.3,149,208.6,148.9,208.4,148.1z"/>
		<path class="st3" d="M209.8,147.9c0,0,0.2-0.6,0.1-0.9c-0.1-0.4-0.4-0.1-0.4-0.1s-0.6,0.6-0.7,1.3c-0.1,0.7,0.2,0.6,0.2,0.6
			l0.4-0.9l-0.2,0.9C209.1,148.8,209.4,148.9,209.8,147.9z"/>
		<path class="st3" d="M208.8,150.3c0,0,0.5-0.5,0.7-0.9s-0.4-0.3-0.4-0.3s-1,0.3-1.5,1s-0.2,0.7-0.2,0.7l0.9-0.8l-0.7,0.8
			C207.6,150.8,207.9,151.1,208.8,150.3z"/>
		<path class="st3" d="M207.4,152c0,0,0.6-0.2,0.9-0.5c0.3-0.3-0.2-0.4-0.2-0.4s-0.9-0.1-1.6,0.2c-0.7,0.4-0.4,0.5-0.4,0.5l1.1-0.3
			l-0.9,0.4C206.2,151.9,206.3,152.3,207.4,152z"/>
		<path class="st3" d="M205.3,153.2c0,0,0.7-0.1,1.1-0.4c0.4-0.2-0.2-0.6-0.3-0.7c-0.4-0.2-1-0.4-1.8-0.1s-0.5,0.6-0.5,0.6h1.2
			l-1.1,0.2C203.9,152.9,204,153.3,205.3,153.2z"/>
		<path class="st3" d="M207.3,150.2c0,0,0.3-0.6,0.2-1c0-0.4-0.5-0.1-0.5-0.1s-0.7,0.6-0.9,1.3s0.1,0.6,0.1,0.6l0.5-0.9l-0.3,0.9
			C206.4,151,206.7,151.2,207.3,150.2z"/>
		<path class="st3" d="M205.5,151.3c0,0,0.3-0.3,0.4-0.6s-0.3-0.2-0.3-0.2s-0.6,0.2-0.9,0.6c-0.3,0.4-0.1,0.4-0.1,0.4l0.6-0.4
			l-0.5,0.5C204.8,151.6,204.9,151.8,205.5,151.3z"/>
		<path class="st3" d="M209.7,145.7c0,0,0-0.5-0.1-0.8s-0.4,0.1-0.4,0.1s-0.4,0.7-0.3,1.3c0.1,0.6,0.3,0.4,0.3,0.4l0.1-0.9v0.8
			C209.3,146.7,209.6,146.6,209.7,145.7z"/>
		<path class="st3" d="M209,144.1c0,0-0.1-0.4-0.3-0.6c-0.2-0.2-0.3,0.1-0.3,0.1s-0.1,0.6,0.1,1c0.2,0.4,0.3,0.3,0.3,0.3l-0.1-0.7
			l0.2,0.6C208.9,144.9,209.1,144.9,209,144.1z"/>
	</g>
	<g>
		
			<rect x="204.1" y="141.6" transform="matrix(0.159 -0.9873 0.9873 0.159 31.0934 321.5112)" class="st3" width="0.4" height="1.9"/>
		
			<rect x="200.7" y="144.5" transform="matrix(0.159 -0.9873 0.9873 0.159 27.8971 322.0527)" class="st3" width="4.6" height="0.3"/>
		<polygon class="st3" points="202.9,147 203.7,142 204,141.9 203.2,147 		"/>
		
			<rect x="201.1" y="144.2" transform="matrix(0.159 -0.9873 0.9873 0.159 28.974 322.7174)" class="st3" width="5.6" height="0.3"/>
		<polygon class="st3" points="203.8,147.2 204.6,142 204.9,142.2 204.1,147.2 		"/>
		
			<rect x="202.4" y="144.8" transform="matrix(0.159 -0.9873 0.9873 0.159 29.0677 324.0604)" class="st3" width="4.6" height="0.3"/>
	</g>
</g>
</svg>
